<svg width="256" height="257" xmlns="http://www.w3.org/2000/svg" preserveAspectRatio="xMidYMid meet" class="iconify iconify--logos" role="img" aria-hidden="true">
 <defs>
  <linearGradient y2="89.03%" y1="2.242%" x2="50.316%" x1="43.376%" id="IconifyId1813088fe1fbc01fb467">
   <stop stop-color="#FFEA83" offset="0%"/>
   <stop stop-color="#FFDD35" offset="8.333%"/>
   <stop stop-color="#FFA800" offset="100%"/>
  </linearGradient>
 </defs>
 <g>
  <title>background</title>
  <rect fill="none" id="canvas_background" height="850" width="1601" y="-1" x="-1"/>
 </g>
 <g>
  <title>Layer 1</title>
  <path stroke="null" id="svg_3" d="m13.865021,127.300566l0,0c0,-65.445729 51.711116,-118.499986 115.499997,-118.499986l0,0c30.632491,0 60.01038,12.484777 81.670815,34.707835c21.660459,22.223066 33.829182,52.363991 33.829182,83.792152l0,0c0,65.445721 -51.711116,118.499986 -115.499997,118.499986l0,0c-63.788873,0 -115.499997,-53.054265 -115.499997,-118.499986zm57.749999,0l0,0c0,32.722857 25.855574,59.249993 57.749999,59.249993c31.894448,0 57.749999,-26.527137 57.749999,-59.249993c0,-32.722857 -25.855566,-59.249993 -57.749999,-59.249993l0,0c-31.894425,0 -57.749999,26.527144 -57.749999,59.249993z" stroke-opacity="null" stroke-width="null" fill="#2277cc"/>
  <path stroke="null" id="svg_2" d="m160.788058,51.043242l-65.490758,11.978429a2.404978,2.244839 0 0 0 -1.938406,2.070363l-4.028412,63.509443a2.404978,2.244839 0 0 0 2.941462,2.3204l18.233824,-3.927782c1.705856,-0.3675 3.247603,1.035181 2.896571,2.636381l-5.417088,24.761236c-0.364279,1.666457 1.311405,3.091119 3.054793,2.59654l11.262479,-3.193469c1.745596,-0.494579 3.423488,0.934205 3.054057,2.602035l-8.608761,38.893832c-0.538692,2.433054 2.928215,3.759488 4.373557,1.674013l0.966259,-1.393064l53.365783,-99.410385c0.89414,-1.664396 -0.647607,-3.562343 -2.605147,-3.209268l-18.769572,3.380997c-1.763258,0.317355 -3.263794,-1.21584 -2.766313,-2.82597l12.25008,-39.638448c0.498216,-1.614251 -1.008207,-3.148133 -2.773673,-2.825283l-0.000736,0z" fill="url(#IconifyId1813088fe1fbc01fb467)"/>
  <path stroke="null" id="svg_4" d="m95.50751,64.989779l0,37.99999l54.999996,0l0,-37.99999l-54.999996,0zm46.342589,34.738327l-37.685182,0l0,-31.476664l37.685182,0l0,31.476664zm-28.518516,-19.141215c2.904815,0 5.261666,-1.968568 5.261666,-4.394823c0,-2.427957 -2.356852,-4.394823 -5.261666,-4.394823c-2.906852,0 -5.261666,1.968568 -5.261666,4.394823c0,2.426255 2.354815,4.394823 5.261666,4.394823zm26.483516,3.828243l-10.01611,-8.365987l-14.090184,11.768869l-3.905,-3.261663l-5.605925,4.682366l0,8.787944l33.617219,0l0,-13.61153z" fill-opacity="null" stroke-opacity="null" stroke-width="null" fill="url(#IconifyId1813088fe1fbc01fb467)"/>
 </g>
</svg>